<svg width="58" height="58" viewBox="0 0 58 58" fill="none" xmlns="http://www.w3.org/2000/svg">
<rect width="57.7372" height="57.7372" rx="28.8686" fill="white"/>
<rect x="0.412409" y="0.412409" width="56.9124" height="56.9124" rx="28.4562" stroke="#131313" stroke-opacity="0.1" stroke-width="0.824818"/>
<g clip-path="url(#clip0_922_60393)">
<path d="M44.1985 28.8639C44.1985 37.3363 37.3422 44.1926 28.8697 44.1926C20.3973 44.1926 13.541 37.3363 13.541 28.8639C13.541 20.3915 20.3973 13.5352 28.8697 13.5352C37.3422 13.5352 44.1985 20.3915 44.1985 28.8639ZM28.8697 14.4657C20.887 14.4657 14.4715 20.8812 14.4715 28.8639C14.4715 36.8466 20.936 43.2621 28.8697 43.2621C36.8524 43.2621 43.268 36.7976 43.268 28.8639C43.268 20.8812 36.8524 14.4657 28.8697 14.4657Z" fill="url(#paint0_linear_922_60393)"/>
<path d="M28.8689 14.4688C20.8862 14.4688 14.4707 20.8843 14.4707 28.867C14.4707 36.8497 20.9352 43.2652 28.8689 43.2652C36.8516 43.2652 43.2671 36.8007 43.2671 28.867C43.2671 20.8843 36.8516 14.4688 28.8689 14.4688ZM28.8689 42.3347C21.4249 42.3347 15.4012 36.3109 15.4012 28.867C15.4012 21.423 21.4249 15.3992 28.8689 15.3992C36.3129 15.3992 42.3366 21.423 42.3366 28.867C42.3366 36.3109 36.3129 42.3347 28.8689 42.3347Z" fill="url(#paint1_linear_922_60393)"/>
<path opacity="0.4" d="M28.8688 44.1956C37.3412 44.1956 44.1975 37.3393 44.1975 28.8668C44.1975 20.3944 37.3412 13.5381 28.8688 13.5381C20.3964 13.5381 13.5401 20.3944 13.5401 28.8668C13.5401 37.3393 20.3964 44.1956 28.8688 44.1956ZM28.8688 13.1953C37.4881 13.1953 44.5403 20.2475 44.5403 28.8668C44.5403 37.4862 37.4881 44.5384 28.8688 44.5384C20.2495 44.5384 13.1973 37.4862 13.1973 28.8668C13.1973 20.2475 20.2495 13.1953 28.8688 13.1953Z" fill="url(#paint2_linear_922_60393)"/>
<path d="M14.2754 28.9126C14.2754 20.881 20.7889 14.2695 28.8695 14.2695C36.9501 14.2695 43.4636 20.832 43.4636 28.9126C43.4636 36.9443 36.9501 43.4578 28.8695 43.4578C20.7889 43.4578 14.2754 36.9443 14.2754 28.9126ZM18.8299 18.8241C16.2343 21.4197 14.6182 24.9947 14.6182 28.9126C14.6182 32.8305 16.2343 36.4056 18.781 38.9522C21.3766 41.4988 24.9516 43.1149 28.8695 43.1149C32.7874 43.1149 36.3625 41.5478 38.9091 38.9522C41.5047 36.4056 43.0718 32.8305 43.0718 28.9126C43.0718 24.9947 41.4557 21.4197 38.9091 18.8241C36.3625 16.2285 32.7874 14.6123 28.8695 14.6123C24.9516 14.6123 21.3766 16.2285 18.8299 18.8241Z" fill="white"/>
<path opacity="0.4" d="M28.8692 42.385C25.2452 42.385 21.866 40.9647 19.3194 38.4181C16.7728 35.8715 15.3525 32.4923 15.3525 28.8683C15.3525 25.2442 16.7728 21.865 19.3194 19.3184C21.866 16.7718 25.2452 15.3516 28.8692 15.3516C32.4933 15.3516 35.8725 16.7718 38.4191 19.3184C40.9657 21.865 42.3859 25.2442 42.3859 28.8683C42.3859 32.4923 40.9657 35.8715 38.4191 38.4181C35.8725 40.9647 32.4933 42.385 28.8692 42.385ZM28.8692 41.9932C32.3464 41.9932 35.6766 40.6219 38.1252 38.1732C40.6229 35.6756 41.9452 32.3944 41.9452 28.9172C41.9452 25.4401 40.5739 22.1099 38.1252 19.6612C35.6276 17.1636 32.3464 15.8413 28.8692 15.8413C25.3921 15.8413 22.0619 17.2126 19.6132 19.6612C17.1156 22.0609 15.7443 25.3911 15.7443 28.8683C15.7443 32.3454 17.1156 35.6756 19.5643 38.1243C22.0619 40.6219 25.3921 41.9932 28.8692 41.9932Z" fill="url(#paint3_linear_922_60393)"/>
<path d="M40.7695 35.2321C40.5246 35.0362 31.0727 27.5432 31.0727 27.5432L28.8689 14.957C28.722 15.006 28.5261 15.1529 28.4282 15.3488L26.861 27.5922L17.1153 35.0852C17.1153 35.0852 16.9194 35.33 16.8214 35.4769C16.7725 35.5749 16.7725 35.7218 16.7725 35.8687L28.82 30.9224L40.8674 35.8687C40.9654 35.6239 40.8674 35.379 40.7695 35.2321Z" fill="white"/>
<path d="M28.9671 29.2568L28.8691 31.5095L39.9372 35.9661C40.3289 36.162 40.6228 36.0641 40.9166 35.8682L29.114 29.2078C29.065 29.1588 28.9671 29.2078 28.9671 29.2568Z" fill="#565F64"/>
<path d="M28.9668 29.2568C28.9668 29.2568 29.6035 30.3832 30.3381 31.1667C31.3665 32.2931 32.7378 33.0767 32.7378 33.0767L39.9369 35.9661C40.3287 36.162 40.6225 36.0641 40.9163 35.8682L29.1137 29.2078C29.0647 29.1588 28.9668 29.2078 28.9668 29.2568Z" fill="url(#paint4_linear_922_60393)"/>
<path d="M40.8673 35.4307C40.8673 35.3818 40.8184 35.3328 40.7694 35.2348L30.6808 27.8398L29.3096 28.7214C29.3096 28.7214 29.4075 28.7703 29.4565 28.7214C29.6034 28.6724 29.8973 28.6234 30.1911 28.7214C30.436 28.8193 40.8673 35.4797 40.8673 35.4307C40.8673 35.4797 40.8673 35.4797 40.8673 35.4307Z" fill="#A4AAAE" fill-opacity="0.6"/>
<path d="M40.5253 34.9909L31.1224 27.5469L30.6816 27.8407L40.7702 35.2847C40.7212 35.1867 40.6233 35.0888 40.5253 34.9909Z" fill="#333E46"/>
<path d="M29.1142 28.5245L29.0652 28.5735C29.0652 28.5735 29.0652 28.6714 29.1631 28.6225C29.2121 28.5735 30.6323 27.8389 31.1221 27.545L29.408 15.7914C29.359 15.3506 29.1631 15.1547 28.8203 15.0078L29.0162 28.6225L29.1142 28.5245Z" fill="#565F64"/>
<path d="M28.2811 15.7887V16.4254L27.2037 27.2485C27.2037 27.3954 27.2527 27.5424 27.3996 27.6403L28.0362 28.13L28.477 16.1805L28.526 15.25C28.379 15.3479 28.3301 15.5438 28.2811 15.7887ZM27.6934 28.3259L27.1057 27.8362L17.1641 35.0353C17.1641 35.0353 16.8703 35.2312 16.8213 35.4271L17.1641 35.2312L27.5955 28.6687C27.7914 28.5708 27.8403 28.4729 27.6934 28.3259Z" fill="#A4AAAE" fill-opacity="0.6"/>
<path d="M28.722 29.2568C28.722 29.2078 28.673 29.1588 28.6241 29.2078L16.7725 35.9172C17.0663 36.1131 17.3601 36.162 17.7519 36.0151L28.82 31.5585L28.722 29.2568Z" fill="#565F64"/>
<path d="M29.0645 28.5744C29.0645 28.5744 29.0645 28.6234 29.1134 28.6234H29.1624C29.2114 28.5744 30.6316 27.8398 31.1213 27.546L30.9254 26.1257L29.4073 15.7923C29.4073 15.5964 29.3583 15.4495 29.2603 15.3516C29.2603 15.3516 29.9949 25.2442 29.9949 26.3216C29.9949 27.7419 29.0645 28.5744 29.0645 28.5744Z" fill="url(#paint5_linear_922_60393)"/>
<path d="M28.722 29.2568C28.722 29.2078 28.673 29.1588 28.6241 29.2078L16.7725 35.9172C17.0663 36.1131 17.3601 36.162 17.7519 36.0151L28.82 31.5585L28.722 29.2568Z" fill="url(#paint6_linear_922_60393)" fill-opacity="0.8"/>
<path opacity="0.8" d="M17.7526 35.9669L28.8206 31.5103L28.7226 29.3555C28.5268 29.9432 28.1839 30.5798 27.2534 31.0695C26.5678 31.4613 20.0054 34.6936 17.6546 35.82C17.5077 35.9179 17.3118 35.9669 17.2139 36.0159C17.4098 36.1138 17.5567 36.0648 17.7526 35.9669Z" fill="url(#paint7_linear_922_60393)"/>
<path d="M29.1142 28.5245L29.0652 28.5735C29.0652 28.5735 29.0652 28.6714 29.1631 28.6225C29.2121 28.5735 30.6323 27.8389 31.1221 27.545L29.408 15.7914C29.359 15.3506 29.1631 15.1547 28.8203 15.0078L29.0162 28.6225L29.1142 28.5245Z" fill="url(#paint8_linear_922_60393)"/>
<path d="M29.1142 28.5245L29.0652 28.5735C29.0652 28.5735 29.0652 28.6714 29.1631 28.6225C29.2121 28.5735 30.6323 27.8389 31.1221 27.545L29.408 15.7914C29.359 15.3506 29.1631 15.1547 28.8203 15.0078L29.0162 28.6225L29.1142 28.5245Z" fill="url(#paint9_linear_922_60393)"/>
<path d="M15.6959 34.9378C15.353 34.1542 13.3941 30.3343 15.5489 22.9883H14.7164C14.2756 24.4575 13.9328 25.339 13.7369 26.6613C13.7369 26.6613 13.639 27.151 13.59 27.6897C13.541 28.2285 13.541 28.5223 13.541 28.8651C13.541 31.8035 14.2756 33.5176 14.2756 33.5176C15.0592 35.9663 16.4305 38.1701 18.2914 39.8352C19.9076 41.2554 22.4052 42.3328 24.4621 42.7246C24.1193 42.6756 18.2425 40.178 15.6959 34.9378Z" fill="url(#paint10_linear_922_60393)"/>
<path d="M29.0648 29.1609H28.624C28.673 29.1609 28.722 29.1609 28.722 29.2099L28.8199 31.4627H28.8689L28.9668 29.2099C28.9668 29.1609 29.0158 29.1119 29.0648 29.1609Z" fill="url(#paint11_linear_922_60393)"/>
<path d="M33.7665 14.3242C38.9087 16.2832 43.7571 21.6703 43.7571 28.4776C43.7571 36.7051 37.1946 43.4145 28.8691 43.4145V44.1981C37.1946 44.1981 44.1979 37.3418 44.1979 28.8694C44.1979 22.111 39.8882 16.4301 33.7665 14.3242Z" fill="url(#paint12_linear_922_60393)"/>
<path d="M41.9936 23.0854C38.5654 15.2007 30.8276 14.7599 30.3869 14.7109H30.3379C36.2637 15.7884 40.0347 19.6573 41.3569 23.7221V23.771C41.9446 25.3382 42.2385 27.0033 42.2874 28.8153C42.3364 30.5294 41.9446 32.4394 41.21 34.2024C41.161 34.4473 41.1121 34.7411 41.0631 34.7411H41.8467C44.1974 30.3335 43.169 25.8769 41.9936 23.0854Z" fill="url(#paint13_linear_922_60393)"/>
<path d="M14.2754 28.9126C14.2754 20.881 20.7889 14.2695 28.8695 14.2695C36.9501 14.2695 43.4636 20.832 43.4636 28.9126C43.4636 36.9443 36.9501 43.4578 28.8695 43.4578C20.7889 43.4578 14.2754 36.9443 14.2754 28.9126ZM18.8299 18.8241C16.2343 21.4197 14.6182 24.9947 14.6182 28.9126C14.6182 32.8305 16.2343 36.4056 18.781 38.9522C21.3766 41.4988 24.9516 43.1149 28.8695 43.1149C32.7874 43.1149 36.3625 41.5478 38.9091 38.9522C41.5047 36.4056 43.0718 32.8305 43.0718 28.9126C43.0718 24.9947 41.4557 21.4197 38.9091 18.8241C36.3625 16.2285 32.7874 14.6123 28.8695 14.6123C24.9516 14.6123 21.3766 16.2285 18.8299 18.8241Z" fill="#FBFBFB"/>
<path d="M17.0664 35.1369L27.057 27.9378C27.5957 28.2316 28.4772 28.6234 28.5752 28.6234C28.6731 28.6724 28.6731 28.5744 28.6731 28.5744L27.4488 27.546C27.3019 27.448 27.2529 27.3011 27.2529 27.1542L28.4283 15.3516C28.3793 15.4005 28.3793 15.4985 28.3303 15.5475C28.2813 15.6454 28.2813 15.6944 28.2813 15.7923L26.5673 27.5949L17.1644 34.99C17.1154 35.0389 17.0664 35.0879 17.0664 35.1369Z" fill="#333F47"/>
</g>
<defs>
<linearGradient id="paint0_linear_922_60393" x1="17.1151" y1="19.0192" x2="40.6244" y2="38.7085" gradientUnits="userSpaceOnUse">
<stop stop-color="white"/>
<stop offset="0.1" stop-color="#CDD0D0"/>
<stop offset="0.2" stop-color="#A5ACAF"/>
<stop offset="0.3" stop-color="#98A0A4"/>
<stop offset="0.4" stop-color="#828A8F"/>
<stop offset="0.5" stop-color="#667075"/>
<stop offset="0.6" stop-color="#535C63"/>
<stop offset="0.7" stop-color="#475158"/>
<stop offset="0.8" stop-color="#434D54"/>
<stop offset="1" stop-color="#475157"/>
</linearGradient>
<linearGradient id="paint1_linear_922_60393" x1="17.8357" y1="19.5909" x2="39.8738" y2="38.1029" gradientUnits="userSpaceOnUse">
<stop stop-color="#0B1F2A"/>
<stop offset="0.2" stop-color="#333F47"/>
<stop offset="0.5" stop-color="#81898D"/>
<stop offset="0.7" stop-color="#B3B8B8"/>
<stop offset="0.8" stop-color="#DEE0DD"/>
<stop offset="1" stop-color="#FBFBFB"/>
</linearGradient>
<linearGradient id="paint2_linear_922_60393" x1="34.225" y1="43.5898" x2="23.4998" y2="14.1082" gradientUnits="userSpaceOnUse">
<stop stop-color="#E1E3E1"/>
<stop offset="0.1" stop-color="#C1C5C4"/>
<stop offset="0.3" stop-color="#9BA1A2"/>
<stop offset="0.5" stop-color="#7D8487"/>
<stop offset="0.7" stop-color="#687074" stop-opacity="0"/>
<stop offset="0.8" stop-color="#5B6469" stop-opacity="0"/>
<stop offset="1" stop-color="#576065" stop-opacity="0"/>
</linearGradient>
<linearGradient id="paint3_linear_922_60393" x1="22.1114" y1="17.1641" x2="35.6271" y2="40.5724" gradientUnits="userSpaceOnUse">
<stop stop-color="#E1E3E1"/>
<stop offset="0.1" stop-color="#C1C5C4"/>
<stop offset="0.3" stop-color="#9BA1A2"/>
<stop offset="0.5" stop-color="#7D8487"/>
<stop offset="0.7" stop-color="#687074" stop-opacity="0"/>
<stop offset="0.8" stop-color="#5B6469" stop-opacity="0"/>
<stop offset="1" stop-color="#576065" stop-opacity="0"/>
</linearGradient>
<linearGradient id="paint4_linear_922_60393" x1="34.9847" y1="32.4856" x2="34.1521" y2="33.8568" gradientUnits="userSpaceOnUse">
<stop stop-color="#27343C"/>
<stop offset="1" stop-color="#00111E" stop-opacity="0"/>
</linearGradient>
<linearGradient id="paint5_linear_922_60393" x1="32.5808" y1="27.4539" x2="31.2095" y2="25.2501" gradientUnits="userSpaceOnUse">
<stop offset="0.1" stop-color="#02131F"/>
<stop offset="0.9" stop-color="#02131F" stop-opacity="0"/>
</linearGradient>
<linearGradient id="paint6_linear_922_60393" x1="28.8601" y1="30.9885" x2="26.8032" y2="31.5761" gradientUnits="userSpaceOnUse">
<stop offset="0.2" stop-color="#02131F"/>
<stop offset="0.9" stop-color="#02131F" stop-opacity="0"/>
</linearGradient>
<linearGradient id="paint7_linear_922_60393" x1="23.3801" y1="33.7161" x2="23.0863" y2="32.9815" gradientUnits="userSpaceOnUse">
<stop stop-color="#02131F"/>
<stop offset="0.1" stop-color="#02131F"/>
<stop offset="1" stop-color="#02131F" stop-opacity="0"/>
</linearGradient>
<linearGradient id="paint8_linear_922_60393" x1="30.6333" y1="21.6261" x2="28.9682" y2="21.822" gradientUnits="userSpaceOnUse">
<stop offset="0.3" stop-color="#02131F"/>
<stop offset="0.8" stop-color="#02131F" stop-opacity="0"/>
</linearGradient>
<linearGradient id="paint9_linear_922_60393" x1="30.6852" y1="21.5982" x2="29.5583" y2="21.7451" gradientUnits="userSpaceOnUse">
<stop offset="0.4" stop-color="#27343C"/>
<stop offset="1" stop-color="#3B474E" stop-opacity="0"/>
</linearGradient>
<linearGradient id="paint10_linear_922_60393" x1="13.0219" y1="29.2721" x2="26.6855" y2="37.1568" gradientUnits="userSpaceOnUse">
<stop stop-color="#25323B" stop-opacity="0"/>
<stop offset="0.1" stop-color="#27343C"/>
</linearGradient>
<linearGradient id="paint11_linear_922_60393" x1="28.8444" y1="31.5116" x2="28.8444" y2="29.1609" gradientUnits="userSpaceOnUse">
<stop offset="0.3" stop-color="#A5ABAF"/>
<stop offset="1" stop-color="#A5ABAF" stop-opacity="0"/>
</linearGradient>
<linearGradient id="paint12_linear_922_60393" x1="36.5335" y1="14.3242" x2="36.5335" y2="44.1981" gradientUnits="userSpaceOnUse">
<stop stop-color="#6B7378"/>
<stop offset="0.2" stop-color="#333F47"/>
<stop offset="0.5" stop-color="#27343C"/>
<stop offset="0.8" stop-color="#333F47"/>
<stop offset="1" stop-color="#434D54"/>
</linearGradient>
<linearGradient id="paint13_linear_922_60393" x1="41.2536" y1="17.1562" x2="34.6422" y2="26.8529" gradientUnits="userSpaceOnUse">
<stop offset="0.7" stop-color="#49545B"/>
<stop offset="0.8" stop-color="white" stop-opacity="0"/>
</linearGradient>
<clipPath id="clip0_922_60393">
<rect width="31.3431" height="31.3431" fill="white" transform="translate(13.1973 13.1953)"/>
</clipPath>
</defs>
</svg>
