<svg xmlns="http://www.w3.org/2000/svg" viewBox="0 0 100 110">
  <!-- Shield -->
  <path d="M50 4 L90 18 L90 62 Q90 88 50 104 Q10 88 10 62 L10 18 Z"
        fill="none" stroke="currentColor" stroke-width="5" stroke-linejoin="round"/>
  <!-- Ram horns - left -->
  <path d="M50 38 C46 30 36 26 30 30 C22 35 22 46 28 50 C32 53 38 51 40 47 C42 43 40 38 36 37 C33 36 30 38 30 41"
        fill="none" stroke="currentColor" stroke-width="3.5" stroke-linecap="round"/>
  <!-- Ram horns - right -->
  <path d="M50 38 C54 30 64 26 70 30 C78 35 78 46 72 50 C68 53 62 51 60 47 C58 43 60 38 64 37 C67 36 70 38 70 41"
        fill="none" stroke="currentColor" stroke-width="3.5" stroke-linecap="round"/>
  <!-- Ram face -->
  <path d="M44 46 C44 42 56 42 56 46 L54 56 C54 60 50 63 50 63 C50 63 46 60 46 56 Z"
        fill="none" stroke="currentColor" stroke-width="3" stroke-linejoin="round"/>
  <!-- Nose -->
  <ellipse cx="50" cy="57" rx="4" ry="2.5" fill="none" stroke="currentColor" stroke-width="2.5"/>
  <!-- DODGE text -->
  <text x="50" y="98" font-family="Arial Black,Arial,sans-serif" font-size="13" font-weight="900"
        fill="currentColor" text-anchor="middle" letter-spacing="2">DODGE</text>
</svg>
